<?xml version="1.0" encoding="utf-8"?>
<svg version="1.1" xmlns:xlink="http://www.w3.org/1999/xlink" width="87px" height="54px" xmlns="http://www.w3.org/2000/svg">
  <g transform="matrix(1 0 0 1 -19 -97 )">
    <path d="M 62.5 97  C 86.86 97  106 108.88  106 124  C 106 139.12  86.86 151  62.5 151  C 38.14 151  19 139.12  19 124  C 19 108.88  38.14 97  62.5 97  Z " fill-rule="nonzero" fill="#ffffff" stroke="none" />
    <path d="M 62.5 97.5  C 86.58 97.5  105.5 109.16  105.5 124  C 105.5 138.84  86.58 150.5  62.5 150.5  C 38.42 150.5  19.5 138.84  19.5 124  C 19.5 109.16  38.42 97.5  62.5 97.5  Z " stroke-width="1" stroke="#797979" fill="none" />
  </g>
</svg>