<?xml version="1.0" encoding="utf-8"?>
<svg version="1.1" xmlns:xlink="http://www.w3.org/1999/xlink" width="87px" height="55px" xmlns="http://www.w3.org/2000/svg">
  <g transform="matrix(1 0 0 1 -19 -19 )">
    <path d="M 62.5 19  C 86.86 19  106 31.099999999999998  106 46.5  C 106 61.9  86.86 74  62.5 74  C 38.14 74  19 61.9  19 46.5  C 19 31.099999999999998  38.14 19  62.5 19  Z " fill-rule="nonzero" fill="#c280ff" stroke="none" fill-opacity="0.42745098039215684" />
    <path d="M 62.5 19.5  C 86.58 19.5  105.5 31.38  105.5 46.5  C 105.5 61.620000000000005  86.58 73.5  62.5 73.5  C 38.42 73.5  19.5 61.620000000000005  19.5 46.5  C 19.5 31.38  38.42 19.5  62.5 19.5  Z " stroke-width="1" stroke="#797979" fill="none" />
  </g>
</svg>