<?xml version="1.0" encoding="utf-8"?>
<svg version="1.1" xmlns:xlink="http://www.w3.org/1999/xlink" width="87px" height="55px" xmlns="http://www.w3.org/2000/svg">
  <g transform="matrix(1 0 0 1 -25 -24 )">
    <path d="M 68.5 24  C 92.86 24  112 36.099999999999994  112 51.5  C 112 66.9  92.86 79  68.5 79  C 44.14 79  25 66.9  25 51.5  C 25 36.099999999999994  44.14 24  68.5 24  Z " fill-rule="nonzero" fill="#c280ff" stroke="none" fill-opacity="0" />
    <path d="M 68.5 24.5  C 92.58 24.5  111.5 36.379999999999995  111.5 51.5  C 111.5 66.62  92.58 78.5  68.5 78.5  C 44.42 78.5  25.5 66.62  25.5 51.5  C 25.5 36.379999999999995  44.42 24.5  68.5 24.5  Z " stroke-width="1" stroke="#797979" fill="none" />
  </g>
</svg>